<svg xmlns="http://www.w3.org/2000/svg" xmlns:xlink="http://www.w3.org/1999/xlink">

<symbol id="linux"><path d="M 7.738281 4.574219 C 7.738281 4.632812 7.679688 4.632812 7.679688 4.632812 L 7.617188 4.632812 C 7.558594 4.632812 7.558594 4.574219 7.5 4.515625 C 7.5 4.515625 7.4375 4.457031 7.4375 4.402344 C 7.4375 4.34375 7.4375 4.34375 7.5 4.34375 L 7.617188 4.402344 C 7.679688 4.457031 7.738281 4.515625 7.738281 4.574219 M 6.65625 3.996094 C 6.65625 3.707031 6.535156 3.535156 6.355469 3.535156 C 6.355469 3.535156 6.355469 3.59375 6.296875 3.59375 L 6.296875 3.707031 L 6.476562 3.707031 C 6.476562 3.824219 6.535156 3.882812 6.535156 3.996094 L 6.65625 3.996094 M 8.761719 3.707031 C 8.882812 3.707031 8.941406 3.824219 9.003906 3.996094 L 9.121094 3.996094 C 9.0625 3.9375 9.0625 3.882812 9.0625 3.824219 C 9.0625 3.765625 9.0625 3.707031 9.003906 3.652344 C 8.941406 3.59375 8.882812 3.535156 8.820312 3.535156 C 8.820312 3.535156 8.761719 3.59375 8.703125 3.59375 C 8.703125 3.652344 8.761719 3.652344 8.761719 3.707031 M 6.957031 4.632812 C 6.898438 4.632812 6.898438 4.632812 6.898438 4.574219 C 6.898438 4.515625 6.898438 4.457031 6.957031 4.402344 C 7.078125 4.402344 7.136719 4.34375 7.136719 4.34375 C 7.199219 4.34375 7.199219 4.402344 7.199219 4.402344 C 7.199219 4.457031 7.136719 4.515625 7.015625 4.632812 L 6.957031 4.632812 M 6.296875 4.574219 C 6.054688 4.457031 5.996094 4.285156 5.996094 3.996094 C 5.996094 3.824219 5.996094 3.707031 6.113281 3.59375 C 6.175781 3.476562 6.296875 3.421875 6.414062 3.421875 C 6.535156 3.421875 6.597656 3.476562 6.714844 3.59375 C 6.777344 3.765625 6.835938 3.9375 6.835938 4.113281 L 6.835938 4.226562 L 6.898438 4.226562 L 6.898438 4.171875 C 6.957031 4.171875 6.957031 4.054688 6.957031 3.824219 C 6.957031 3.652344 6.957031 3.476562 6.835938 3.304688 C 6.714844 3.132812 6.597656 3.015625 6.355469 3.015625 C 6.175781 3.015625 5.996094 3.132812 5.933594 3.304688 C 5.8125 3.535156 5.789062 3.707031 5.789062 3.996094 C 5.789062 4.226562 5.875 4.457031 6.113281 4.6875 C 6.175781 4.632812 6.234375 4.632812 6.296875 4.574219 M 13.8125 12.707031 C 13.875 12.707031 13.875 12.683594 13.875 12.632812 C 13.875 12.507812 13.8125 12.355469 13.632812 12.1875 C 13.453125 12.015625 13.152344 11.90625 12.792969 11.859375 C 12.730469 11.855469 12.671875 11.855469 12.671875 11.855469 C 12.613281 11.84375 12.613281 11.84375 12.550781 11.84375 C 12.492188 11.835938 12.371094 11.824219 12.3125 11.8125 C 12.492188 11.277344 12.550781 10.804688 12.550781 10.390625 C 12.550781 9.8125 12.429688 9.410156 12.191406 9.0625 C 11.949219 8.714844 11.710938 8.542969 11.410156 8.484375 C 11.347656 8.542969 11.347656 8.542969 11.347656 8.601562 C 11.648438 8.714844 11.949219 8.945312 12.128906 9.292969 C 12.3125 9.695312 12.371094 10.042969 12.371094 10.445312 C 12.371094 10.769531 12.3125 11.25 12.070312 11.859375 C 11.828125 11.953125 11.589844 12.167969 11.410156 12.5 C 11.410156 12.550781 11.410156 12.582031 11.46875 12.582031 C 11.46875 12.582031 11.527344 12.53125 11.589844 12.429688 C 11.710938 12.332031 11.769531 12.234375 11.890625 12.136719 C 12.070312 12.039062 12.191406 11.988281 12.371094 11.988281 C 12.671875 11.988281 12.972656 12.027344 13.152344 12.109375 C 13.394531 12.183594 13.511719 12.265625 13.574219 12.355469 C 13.632812 12.441406 13.695312 12.523438 13.753906 12.597656 C 13.753906 12.671875 13.8125 12.707031 13.8125 12.707031 M 8.28125 4.34375 C 8.21875 4.285156 8.21875 4.171875 8.21875 4.054688 C 8.21875 3.824219 8.21875 3.707031 8.339844 3.535156 C 8.460938 3.421875 8.582031 3.363281 8.703125 3.363281 C 8.882812 3.363281 9.003906 3.476562 9.121094 3.59375 C 9.183594 3.765625 9.242188 3.882812 9.242188 4.054688 C 9.242188 4.34375 9.121094 4.515625 8.882812 4.574219 C 8.882812 4.574219 8.941406 4.632812 9.003906 4.632812 C 9.121094 4.632812 9.183594 4.6875 9.304688 4.746094 C 9.363281 4.402344 9.421875 4.171875 9.421875 3.882812 C 9.421875 3.535156 9.363281 3.304688 9.242188 3.132812 C 9.0625 2.957031 8.882812 2.902344 8.640625 2.902344 C 8.460938 2.902344 8.28125 2.957031 8.101562 3.074219 C 7.980469 3.246094 7.917969 3.363281 7.917969 3.535156 C 7.917969 3.824219 7.980469 4.054688 8.101562 4.285156 C 8.160156 4.285156 8.21875 4.34375 8.28125 4.34375 M 9.003906 5.265625 C 8.21875 5.785156 7.617188 6.015625 7.136719 6.015625 C 6.714844 6.015625 6.296875 5.84375 5.933594 5.554688 C 5.996094 5.671875 6.054688 5.785156 6.113281 5.84375 L 6.476562 6.1875 C 6.714844 6.421875 7.015625 6.535156 7.316406 6.535156 C 7.738281 6.535156 8.21875 6.304688 8.820312 5.902344 L 9.363281 5.554688 C 9.484375 5.4375 9.605469 5.324219 9.605469 5.152344 C 9.605469 5.09375 9.605469 5.035156 9.542969 5.035156 C 9.484375 4.921875 9.183594 4.746094 8.582031 4.574219 C 8.039062 4.34375 7.617188 4.226562 7.378906 4.226562 C 7.199219 4.226562 6.898438 4.34375 6.476562 4.574219 C 6.113281 4.804688 5.875 5.035156 5.875 5.265625 C 5.875 5.265625 5.933594 5.324219 5.996094 5.4375 C 6.355469 5.726562 6.714844 5.902344 7.078125 5.902344 C 7.558594 5.902344 8.160156 5.671875 8.941406 5.09375 L 8.941406 5.207031 C 9.003906 5.207031 9.003906 5.265625 9.003906 5.265625 M 10.386719 16.921875 C 10.625 17.355469 11.046875 17.570312 11.527344 17.570312 C 11.648438 17.570312 11.769531 17.554688 11.890625 17.519531 C 12.011719 17.496094 12.128906 17.457031 12.191406 17.410156 C 12.25 17.371094 12.3125 17.328125 12.371094 17.285156 C 12.492188 17.242188 12.492188 17.214844 12.550781 17.183594 L 13.574219 16.335938 C 13.8125 16.152344 14.054688 15.992188 14.355469 15.851562 C 14.597656 15.714844 14.835938 15.621094 14.957031 15.570312 C 15.136719 15.523438 15.257812 15.453125 15.378906 15.363281 C 15.4375 15.277344 15.5 15.167969 15.5 15.027344 C 15.5 14.859375 15.378906 14.734375 15.257812 14.640625 C 15.136719 14.546875 15.015625 14.484375 14.898438 14.445312 C 14.777344 14.40625 14.65625 14.3125 14.476562 14.15625 C 14.355469 14.007812 14.234375 13.796875 14.175781 13.527344 L 14.113281 13.191406 C 14.054688 13.039062 14.054688 12.921875 13.996094 12.859375 C 13.996094 12.839844 13.996094 12.835938 13.933594 12.835938 C 13.875 12.835938 13.753906 12.886719 13.695312 12.984375 C 13.574219 13.082031 13.453125 13.191406 13.332031 13.308594 C 13.273438 13.421875 13.09375 13.527344 12.972656 13.625 C 12.792969 13.722656 12.613281 13.777344 12.492188 13.777344 C 12.011719 13.777344 11.769531 13.648438 11.589844 13.402344 C 11.46875 13.214844 11.410156 13.003906 11.347656 12.761719 C 11.226562 12.664062 11.167969 12.609375 11.046875 12.609375 C 10.746094 12.609375 10.625 12.910156 10.625 13.515625 L 10.625 15.308594 C 10.625 15.363281 10.566406 15.476562 10.566406 15.65625 C 10.507812 15.835938 10.507812 16.039062 10.507812 16.269531 L 10.386719 16.910156 L 10.386719 16.917969 M 1.664062 16.613281 C 2.222656 16.691406 2.867188 16.859375 3.59375 17.117188 C 4.324219 17.371094 4.769531 17.503906 4.929688 17.503906 C 5.351562 17.503906 5.699219 17.324219 5.988281 16.976562 C 6.050781 16.867188 6.050781 16.734375 6.050781 16.582031 C 6.050781 16.039062 5.707031 15.347656 5.019531 14.511719 L 4.613281 13.988281 C 4.527344 13.878906 4.425781 13.710938 4.292969 13.484375 C 4.167969 13.261719 4.050781 13.085938 3.960938 12.964844 C 3.882812 12.832031 3.757812 12.699219 3.59375 12.566406 C 3.4375 12.433594 3.257812 12.347656 3.058594 12.300781 C 2.808594 12.347656 2.632812 12.429688 2.546875 12.539062 C 2.464844 12.648438 2.414062 12.769531 2.402344 12.898438 C 2.386719 13.019531 2.351562 13.097656 2.289062 13.140625 C 2.230469 13.171875 2.128906 13.203125 1.988281 13.230469 C 1.957031 13.230469 1.90625 13.230469 1.828125 13.238281 L 1.664062 13.238281 C 1.34375 13.238281 1.128906 13.273438 1.015625 13.328125 C 0.863281 13.496094 0.785156 13.6875 0.785156 13.890625 C 0.785156 13.980469 0.808594 14.136719 0.859375 14.355469 C 0.90625 14.570312 0.929688 14.742188 0.929688 14.863281 C 0.929688 15.101562 0.859375 15.335938 0.707031 15.574219 C 0.558594 15.820312 0.480469 16.007812 0.480469 16.136719 C 0.539062 16.363281 0.9375 16.519531 1.664062 16.609375 M 3.667969 11.367188 C 3.667969 10.96875 3.773438 10.53125 3.996094 10.011719 C 4.214844 9.492188 4.429688 9.144531 4.640625 8.914062 C 4.628906 8.859375 4.597656 8.859375 4.550781 8.859375 L 4.492188 8.800781 C 4.316406 8.972656 4.105469 9.375 3.851562 9.953125 C 3.601562 10.472656 3.46875 10.953125 3.46875 11.304688 C 3.46875 11.5625 3.535156 11.789062 3.65625 11.984375 C 3.789062 12.175781 4.105469 12.453125 4.613281 12.804688 L 5.25 13.203125 C 5.929688 13.765625 6.289062 14.160156 6.289062 14.390625 C 6.289062 14.511719 6.230469 14.632812 6.050781 14.765625 C 5.929688 14.902344 5.765625 14.972656 5.628906 14.972656 C 5.617188 14.972656 5.609375 14.984375 5.609375 15.011719 C 5.609375 15.019531 5.671875 15.132812 5.796875 15.359375 C 6.050781 15.6875 6.589844 15.851562 7.3125 15.851562 C 8.636719 15.851562 9.65625 15.332031 10.441406 14.292969 C 10.441406 14.003906 10.441406 13.824219 10.378906 13.75 L 10.378906 13.535156 C 10.378906 13.160156 10.441406 12.878906 10.558594 12.695312 C 10.679688 12.507812 10.800781 12.421875 10.980469 12.421875 C 11.101562 12.421875 11.222656 12.464844 11.34375 12.550781 C 11.402344 12.105469 11.402344 11.71875 11.402344 11.371094 C 11.402344 10.847656 11.402344 10.414062 11.28125 10.011719 C 11.222656 9.664062 11.101562 9.375 10.980469 9.144531 C 10.859375 8.972656 10.742188 8.800781 10.621094 8.625 C 10.5 8.453125 10.441406 8.28125 10.320312 8.109375 C 10.257812 7.875 10.199219 7.703125 10.199219 7.414062 C 10.019531 7.125 9.898438 6.839844 9.71875 6.550781 C 9.597656 6.261719 9.476562 5.972656 9.355469 5.742188 L 8.816406 6.144531 C 8.214844 6.550781 7.734375 6.722656 7.3125 6.722656 C 6.953125 6.722656 6.652344 6.664062 6.46875 6.433594 L 6.109375 6.144531 C 6.109375 6.320312 6.050781 6.550781 5.929688 6.78125 L 5.550781 7.472656 C 5.382812 7.875 5.292969 8.109375 5.273438 8.28125 C 5.25 8.394531 5.230469 8.511719 5.21875 8.511719 L 4.769531 9.375 C 4.28125 10.242188 4.035156 11.042969 4.035156 11.707031 C 4.035156 11.839844 4.046875 11.980469 4.070312 12.117188 C 3.800781 11.9375 3.667969 11.691406 3.667969 11.367188 M 7.972656 16.824219 C 7.191406 16.824219 6.589844 16.925781 6.167969 17.128906 L 6.167969 17.109375 C 5.867188 17.457031 5.53125 17.636719 5.0625 17.636719 C 4.769531 17.636719 4.304688 17.527344 3.679688 17.304688 C 3.046875 17.097656 2.488281 16.941406 2 16.835938 C 1.953125 16.820312 1.84375 16.800781 1.671875 16.773438 C 1.5 16.75 1.34375 16.722656 1.207031 16.695312 C 1.082031 16.671875 0.9375 16.632812 0.78125 16.578125 C 0.628906 16.53125 0.507812 16.472656 0.417969 16.402344 C 0.335938 16.328125 0.296875 16.246094 0.296875 16.15625 C 0.296875 16.0625 0.316406 15.964844 0.355469 15.859375 C 0.394531 15.796875 0.4375 15.730469 0.480469 15.671875 C 0.519531 15.609375 0.558594 15.550781 0.582031 15.496094 C 0.617188 15.441406 0.640625 15.390625 0.664062 15.332031 C 0.691406 15.28125 0.714844 15.230469 0.726562 15.167969 C 0.738281 15.109375 0.75 15.050781 0.75 14.992188 C 0.75 14.933594 0.726562 14.761719 0.675781 14.457031 C 0.628906 14.15625 0.605469 13.964844 0.605469 13.886719 C 0.605469 13.632812 0.664062 13.429688 0.796875 13.285156 C 0.929688 13.140625 1.054688 13.066406 1.1875 13.066406 L 1.878906 13.066406 C 1.933594 13.066406 2.019531 13.039062 2.144531 12.96875 C 2.1875 12.875 2.222656 12.800781 2.246094 12.730469 C 2.277344 12.664062 2.289062 12.609375 2.300781 12.585938 C 2.3125 12.550781 2.324219 12.519531 2.335938 12.488281 C 2.363281 12.449219 2.390625 12.402344 2.433594 12.355469 C 2.386719 12.296875 2.363281 12.222656 2.363281 12.132812 C 2.363281 12.066406 2.363281 12.011719 2.375 11.976562 C 2.375 11.769531 2.476562 11.472656 2.691406 11.085938 L 2.902344 10.722656 C 3.078125 10.414062 3.210938 10.179688 3.304688 9.949219 C 3.410156 9.71875 3.515625 9.375 3.636719 8.914062 C 3.734375 8.507812 3.960938 8.105469 4.324219 7.699219 L 4.773438 7.179688 C 5.085938 6.835938 5.292969 6.546875 5.40625 6.316406 C 5.519531 6.085938 5.578125 5.796875 5.578125 5.566406 C 5.578125 5.449219 5.550781 5.105469 5.484375 4.527344 C 5.421875 3.949219 5.394531 3.375 5.394531 2.855469 C 5.394531 2.449219 5.429688 2.164062 5.507812 1.875 C 5.585938 1.585938 5.722656 1.296875 5.929688 1.066406 C 6.109375 0.835938 6.351562 0.605469 6.710938 0.488281 C 7.070312 0.375 7.492188 0.316406 7.972656 0.316406 C 8.152344 0.316406 8.335938 0.316406 8.515625 0.375 C 8.695312 0.375 8.9375 0.429688 9.238281 0.546875 C 9.476562 0.664062 9.71875 0.777344 9.898438 0.949219 C 10.140625 1.125 10.320312 1.414062 10.5 1.699219 C 10.621094 2.046875 10.742188 2.394531 10.800781 2.855469 C 10.859375 3.144531 10.859375 3.429688 10.921875 3.835938 C 10.921875 4.179688 10.980469 4.414062 10.980469 4.585938 C 11.042969 4.757812 11.042969 4.988281 11.101562 5.277344 C 11.160156 5.507812 11.222656 5.738281 11.34375 5.914062 C 11.460938 6.144531 11.582031 6.375 11.761719 6.605469 C 11.945312 6.894531 12.183594 7.179688 12.425781 7.527344 C 12.964844 8.105469 13.386719 8.738281 13.628906 9.375 C 13.929688 9.949219 14.109375 10.699219 14.109375 11.503906 C 14.109375 11.902344 14.050781 12.289062 13.929688 12.664062 C 14.050781 12.664062 14.109375 12.707031 14.167969 12.789062 C 14.230469 12.871094 14.289062 13.042969 14.351562 13.3125 L 14.410156 13.742188 C 14.46875 13.867188 14.53125 13.988281 14.710938 14.09375 C 14.832031 14.195312 14.953125 14.285156 15.132812 14.351562 C 15.253906 14.410156 15.433594 14.492188 15.550781 14.59375 C 15.671875 14.710938 15.734375 14.832031 15.734375 14.957031 C 15.734375 15.15625 15.671875 15.296875 15.550781 15.402344 C 15.433594 15.519531 15.3125 15.597656 15.132812 15.652344 C 15.011719 15.707031 14.769531 15.824219 14.410156 15.988281 C 14.109375 16.15625 13.808594 16.363281 13.507812 16.609375 L 12.90625 17.101562 C 12.664062 17.324219 12.425781 17.488281 12.246094 17.585938 C 12.0625 17.6875 11.824219 17.742188 11.582031 17.742188 L 11.160156 17.695312 C 10.679688 17.574219 10.378906 17.34375 10.199219 16.992188 C 9.238281 16.878906 8.453125 16.824219 7.972656 16.824219 "/>
</symbol>

</svg>
